<svg width="20" height="18" viewBox="0 0 20 18" fill="none" xmlns="http://www.w3.org/2000/svg">
<path d="M11.4139 2H17.9999C18.2651 2 18.5194 2.10536 18.707 2.29289C18.8945 2.48043 18.9999 2.73478 18.9999 3V4H0.999876V1C0.999876 0.734784 1.10523 0.48043 1.29277 0.292893C1.48031 0.105357 1.73466 0 1.99988 0H9.41388L11.4139 2ZM1.08688 6H18.9129C19.0512 5.99994 19.1881 6.02859 19.3148 6.08413C19.4415 6.13968 19.5553 6.22092 19.649 6.32271C19.7427 6.4245 19.8143 6.54463 19.8592 6.67549C19.9041 6.80636 19.9214 6.94512 19.9099 7.083L19.0759 17.083C19.0551 17.3329 18.9411 17.5658 18.7567 17.7357C18.5722 17.9055 18.3306 17.9999 18.0799 18H1.91988C1.66912 17.9999 1.42757 17.9055 1.2431 17.7357C1.05862 17.5658 0.944689 17.3329 0.923876 17.083L0.0898763 7.083C0.0783928 6.94512 0.0956452 6.80636 0.140542 6.67549C0.18544 6.54463 0.257005 6.4245 0.350711 6.32271C0.444418 6.22092 0.558228 6.13968 0.684943 6.08413C0.811658 6.02859 0.948521 5.99994 1.08688 6Z" fill="#00ACCD"/>
</svg>
