<svg width="24" height="24" viewBox="0 0 24 24" fill="none" xmlns="http://www.w3.org/2000/svg">
<path d="M6.6875 12C6.6875 11.0091 6.96051 10.0809 7.4348 9.28608V5.91467H4.0634C2.72531 7.65249 2 9.77042 2 12C2 14.2296 2.72531 16.3476 4.0634 18.0854H7.4348V14.714C6.96051 13.9192 6.6875 12.9909 6.6875 12Z" fill="#FBBD00"/>
<path d="M12 17.3125L9.65625 19.6562L12 22C14.2296 22 16.3475 21.2747 18.0854 19.9366V16.5688H14.7175C13.9158 17.0448 12.9836 17.3125 12 17.3125Z" fill="#0F9D58"/>
<path d="M7.43391 14.7139L4.0625 18.0853C4.32742 18.4294 4.6159 18.7589 4.92805 19.0711C6.8168 20.9598 9.32801 22 11.9991 22V17.3125C10.0607 17.3125 8.36172 16.2687 7.43391 14.7139Z" fill="#31AA52"/>
<path d="M22 12C22 11.3916 21.9449 10.782 21.8363 10.1884L21.7483 9.70795H12V14.3954H16.7442C16.2835 15.3119 15.5752 16.0596 14.7175 16.5688L18.0853 19.9366C18.4294 19.6717 18.7589 19.3832 19.0711 19.0711C20.9598 17.1823 22 14.6711 22 12Z" fill="#3C79E6"/>
<path d="M15.7565 8.24348L16.1708 8.65777L19.4854 5.34324L19.0711 4.92895C17.1823 3.0402 14.6711 2 12 2L9.65625 4.34375L12 6.6875C13.419 6.6875 14.7531 7.24008 15.7565 8.24348Z" fill="#CF2D48"/>
<path d="M11.9991 6.6875V2C9.32805 2 6.81684 3.0402 4.92805 4.92891C4.6159 5.24105 4.32742 5.57055 4.0625 5.91465L7.43391 9.28605C8.36176 7.73125 10.0607 6.6875 11.9991 6.6875Z" fill="#EB4132"/>
</svg>
