<svg width="210" height="35" fill="none" xmlns="http://www.w3.org/2000/svg">
    <path d="M18.8 6.8c3.1-7.8 11.5-8.4 15.8-4C39 7 39.1 14 35.1 18.5L18.8 35 3.7 20.1l-1.5-1.6h3.1c.5 0 1-.3 1.2-.8l2.2-5.5L12.2 25a1.3 1.3 0 002.4.2l4.1-9.2 2.4 5.1c.4.8 1.4 1 2 .4l2.9-2.9h2.5a1 1 0 000-2h-2.8c-.3 0-.6.2-.9.4l-2.3 2.4-2.6-5.5c-.5-1-1.9-1-2.3 0l-4 8.7L10 9.7c-.3-1.1-2-1.2-2.4-.1l-2.9 7H1.1v-.1C-.8 12-.5 6 3 2.7c4.3-4.3 12.7-3.8 15.8 4z"
          fill="#00ACCD"/>
    <path d="M58.7 8.8h4.7v16.8h-4.7v-6.4h-5v6.4H49V8.8h4.7V15h5v-6zM79.6 19l-.1 1.2h-9.7c.2.8.5 1.3 1 1.7.4.4 1 .6 1.7.6.5 0 1-.1 1.4-.3l1-1h4.4a6.5 6.5 0 01-2.5 3.6 7.2 7.2 0 01-4.3 1.3c-1.3 0-2.5-.3-3.6-1-1-.5-2-1.4-2.5-2.4a7 7 0 01-1-3.6c0-2 .7-3.6 2-4.9a7 7 0 015.1-2c1 0 2 .2 2.9.6a6.5 6.5 0 014.2 6.2zm-7.1-3.3c-.7 0-1.2.2-1.6.6-.5.3-.8.8-1 1.4h5.3c-.4-1.3-1.3-2-2.7-2zM92 12.7h3.4v13h-3.5l-.3-1a6 6 0 01-4 1.4 7 7 0 01-3.5-1c-1-.5-1.8-1.3-2.4-2.4-.6-1-.9-2.2-.9-3.6 0-2 .7-3.6 2-4.9 1.2-1.3 2.9-2 4.8-2a6 6 0 014 1.5l.5-1zm-5.8 8.6c.5.5 1.2.8 2 .8.9 0 1.6-.3 2.1-.8.6-.6.8-1.3.8-2.1a2.9 2.9 0 00-2.9-3c-.8 0-1.5.3-2 .8-.6.6-.9 1.3-.9 2.2 0 .8.3 1.5.9 2zM98.2 25.6V8h4.5v17.6h-4.5zM112.5 21.7h1.7v4h-3c-1.5 0-2.6-.5-3.4-1.3-.9-.8-1.3-2-1.3-3.4v-4.9h-2.3v-1l5.8-6.2h.9v3.8h3.2V16H111v4.1c0 .5.1.9.4 1.1.3.3.6.4 1 .4zM124.2 12.3c1.5 0 2.7.5 3.6 1.5.9 1 1.3 2.4 1.3 4v7.8h-4.5v-7.3c0-1.5-.5-2.2-1.6-2.2a2 2 0 00-1.6.7c-.4.4-.6 1-.6 2v6.8h-4.5V8h4.5v5.5c1-.8 2.1-1.2 3.4-1.2zM140 26c-1.8 0-3.3-.3-4.6-1a8.4 8.4 0 01-3.2-3.3 8.9 8.9 0 01-1.2-4.5c0-1.6.4-3.1 1.2-4.5a8.3 8.3 0 013.2-3.1 9.2 9.2 0 014.5-1.2 8.4 8.4 0 018.5 7.2h-4.7c-.3-.9-.7-1.6-1.4-2-.7-.6-1.5-.9-2.4-.9-1.2 0-2.1.5-3 1.3-.7.9-1 2-1 3.2 0 1.3.3 2.4 1 3.3.9.8 1.8 1.2 3 1.2 1 0 1.8-.3 2.5-.8.6-.6 1.1-1.3 1.3-2.3h4.8c-.4 2.3-1.3 4-2.9 5.4a8.4 8.4 0 01-5.7 2zM158.4 12.3c1.5 0 2.7.5 3.5 1.5 1 1 1.4 2.4 1.4 4v7.8h-4.5v-7.3c0-1.5-.5-2.2-1.7-2.2a2 2 0 00-1.6.7c-.4.4-.6 1-.6 2v6.8h-4.4V8h4.4v5.5c1-.8 2.2-1.2 3.5-1.2zM179.3 19v1.2h-9.7c.1.8.4 1.3.9 1.7.4.4 1 .6 1.7.6.5 0 1-.1 1.4-.3l1-1h4.4a6.5 6.5 0 01-2.5 3.6 7.2 7.2 0 01-4.3 1.3c-1.3 0-2.5-.3-3.6-1-1-.5-1.9-1.4-2.5-2.4a7 7 0 01-1-3.6c0-2 .7-3.6 2-4.9a7 7 0 015.1-2c1 0 2 .2 2.9.6a6.5 6.5 0 014.2 6.2zm-7-3.3c-.7 0-1.3.2-1.7.6-.5.3-.8.8-1 1.4h5.3c-.4-1.3-1.3-2-2.7-2zM187.7 26c-1 0-2-.1-2.8-.5-1-.3-1.7-.8-2.3-1.4a7.1 7.1 0 01-2-5c0-2 .6-3.6 2-4.9 1.3-1.3 3-2 5.1-2 1.9 0 3.4.6 4.6 1.7 1.3 1 2 2.4 2.3 4.1h-4.3c-.2-.5-.6-1-1-1.2-.5-.4-1-.5-1.6-.5-.8 0-1.4.2-2 .8a3 3 0 00-.7 2c0 .9.3 1.6.8 2.1.5.6 1.1.9 2 .9.5 0 1-.2 1.5-.5.5-.4.8-.8 1-1.4h4.4c-.3 1.7-1 3.2-2.3 4.2a7 7 0 01-4.7 1.7zM209.7 25.6h-5.2l-3.3-5.4v5.4h-4.4V8h4.4v9.8l3.1-5.1h5l-4 6.2 4.4 6.7z"
          fill="#191B1C"/>
</svg>
