<svg width="1524" height="1252" viewBox="0 0 1524 1252" fill="none" xmlns="http://www.w3.org/2000/svg">
<g clip-path="url(#clip0)">
<path d="M1524 761.726C1524 1182.41 1182.84 1246.46 762 1246.46C341.159 1246.46 0 1182.41 0 761.726C0 341.036 341.159 0 762 0C1182.84 0 1524 341.036 1524 761.726Z" fill="url(#paint0_linear)"/>
<path d="M398.677 882.825L353.788 910.873C293.446 851.752 271.885 815.87 248.629 730.075L260.035 725.128L287.683 783.933L267.878 697.196L280.628 695.567L311.548 771.912L297.591 685.418L312.739 684.981L340.498 767.712L323.673 693.063L338.821 692.626C361.275 734.13 374.806 757.275 387.45 802.63C385.784 796.342 384.081 785.983 390.154 757.885L407.7 758.633C407.63 801.035 415.511 837.952 398.677 882.825Z" fill="#F8D89B"/>
<path d="M994.232 585.225L997.845 585.536C1005.59 563.099 988.757 434.087 927.032 344.34C854.672 250.914 725.155 280.668 669.509 349.51C617.832 413.434 602.703 570.783 608.283 585.536C760.173 564.977 844.946 572.312 994.232 585.225Z" fill="#191B1C"/>
<path d="M954.808 579.901L955.09 579.929C961.07 562.318 946.717 455.446 899.052 385.005C843.179 311.676 743.171 335.03 700.206 389.062C660.299 439.236 647.769 568.345 652.08 579.929C770.21 563.675 837.964 569.63 954.808 579.901Z" fill="black"/>
<path d="M882.145 712.026C863.236 662.19 863.402 638.718 859.7 585.535H753.087C753.087 585.535 753.087 669.674 730.643 712.026H882.145Z" fill="#E9D09F"/>
<path d="M725.65 671.319C799.639 733.105 833.178 726.817 884.263 671.319L1012.21 711.638C1029.19 716.989 1042.56 730.169 1048.16 747.065L1153.27 1064.51C1158.02 1078.86 1150.39 1094.37 1136.12 1099.36L1049.6 1129.63L1014.46 1031.61C1021.07 1114.31 1022.99 1159.83 1014.46 1235.46H621.486C607.817 1112.73 606.186 1042.8 611.927 916.478L541.589 1105.6C541.205 1106.63 540.481 1107.52 539.549 1108.1C506.706 1128.71 487.782 1140.74 444.307 1107.8C443.787 1107.41 443.335 1106.9 443.007 1106.34L325.668 905.26L421.059 871.606L477.193 950.133L532.777 758.865C537.916 741.176 551.513 727.199 569.055 721.571L725.65 671.319Z" fill="#FFB000"/>
<path d="M1100.1 785.018L856.147 742.594L696.094 1043.79L916.747 1079.14L1100.1 785.018Z" fill="#00ACCD"/>
<path opacity="0.2" d="M857.849 1019.19C859.173 1021.58 861.063 1023.61 863.357 1025.1L1015.94 1124.02L1021.55 995.011L926.152 926.761L926.113 926.816L909.321 916.479L899.036 930.5C897.129 909.343 885.719 892.862 873.604 875.368C866.727 865.44 859.628 855.186 853.903 843.558L837.86 850.693C845.54 881.245 852.146 888.564 856.441 893.322L856.486 893.372C852.961 889.588 810.993 854.294 810.993 854.294L780.258 860.388L752.205 888.436L740.994 905.261V909.825C741 923.775 745.982 937.558 756.666 946.532C779.671 965.872 800.619 971.949 820.242 977.638C832.246 981.123 843.756 984.463 854.934 990.607L853.875 992.053C850.04 997.277 849.592 1004.25 852.728 1009.92L857.849 1019.19Z" fill="#191B1C"/>
<path d="M898.101 927.697L875.657 983.793C840.306 948.449 802.577 959.6 756.635 920.345C746.023 911.277 741.007 897.51 741.002 883.561V882.824L752.213 865.994L797.102 821.122L810.906 828.257L808.324 837.952C808.324 837.952 853.911 867.944 856.599 871.046C852.309 866.293 845.643 859.164 837.867 828.257L853.911 821.122C872.642 859.164 906.115 882.525 898.101 927.697Z" fill="#F8D89B"/>
<path d="M864.436 989.4L926.16 904.324C926.16 904.324 1149.17 1006.05 1155.67 1035.7C1162.17 1065.36 1156.97 1076.81 1145 1097.84C1126.47 1130.37 1086.37 1128.14 1049.6 1129.63C1012.82 1131.12 864.436 989.4 864.436 989.4Z" fill="#FFBD2C"/>
<path d="M338.936 935.524L325.668 907.714L424.5 863.002L437.768 890.812L338.936 935.524Z" fill="#E38E00"/>
<path d="M864.43 989.399L853.213 972.57L909.329 894.042L926.697 904.734L864.43 989.399Z" fill="#E38E00"/>
<path d="M711.453 676.056L737.5 664.206C789.576 702.132 820.355 704.503 877.17 666.577L910.31 676.056C815.617 742.429 777.744 725.837 711.453 676.056Z" fill="#E38E00"/>
<path d="M713.291 531.078C720.601 529.153 723.326 515.45 719.379 500.472C715.431 485.493 706.306 474.911 698.996 476.836C691.687 478.761 688.962 492.464 692.909 507.442C696.857 522.421 705.982 533.003 713.291 531.078Z" fill="#E9D09F"/>
<path d="M905.125 531.078C897.815 529.153 895.09 515.45 899.037 500.472C902.985 485.493 912.11 474.911 919.419 476.836C926.729 478.761 929.454 492.464 925.507 507.442C921.559 522.421 912.434 533.003 905.125 531.078Z" fill="#E9D09F"/>
<path d="M910.202 467.743C910.202 551.388 868.361 619.19 809.197 619.19C747.472 619.19 719.419 554.285 708.197 467.743C708.197 384.1 754.577 316.293 811.785 316.293C868.999 316.293 910.202 384.1 910.202 467.743Z" fill="#F8D89B"/>
<path d="M736.254 439.696H674.529L703.241 345.675L803.587 305.075L886.975 333.922L921.428 439.696H758.698L752.957 386.809L736.254 439.696Z" fill="#191B1C"/>
<path d="M773.708 469.687C765.295 460.725 742.302 460.203 730.598 468.707" stroke="#191B1C" stroke-width="6" stroke-linecap="round"/>
<path d="M843.105 468.983C851.668 460.16 874.666 460.014 886.226 468.709" stroke="#191B1C" stroke-width="6" stroke-linecap="round"/>
<path d="M754.042 475.448C760.763 475.448 766.21 478.601 766.209 482.49C766.207 486.38 760.756 489.533 754.035 489.533C747.314 489.533 741.867 486.38 741.869 482.49C741.871 478.601 747.321 475.448 754.042 475.448Z" fill="#191B1C"/>
<path d="M862.825 475.448C856.104 475.448 850.657 478.601 850.658 482.49C850.66 486.38 856.111 489.533 862.832 489.533C869.553 489.533 875 486.38 874.999 482.49C874.997 478.601 869.546 475.448 862.825 475.448Z" fill="#191B1C"/>
<path d="M785.875 557.487C785.875 568.711 802.711 579.929 813.933 579.929C826.208 579.929 841.986 563.099 847.6 551.881C826.552 558.606 813.933 568.711 785.875 557.487Z" fill="#CC7655"/>
<path d="M794.784 524.161L802.703 484.57H813.925L821.845 524.161C823.557 532.698 817.023 540.663 808.311 540.663C799.605 540.663 793.071 532.698 794.784 524.161Z" fill="#EFD39C"/>
<path fill-rule="evenodd" clip-rule="evenodd" d="M471.808 474.491C482.133 456.801 488.049 436.223 488.049 414.265C488.049 348.169 434.453 294.588 368.339 294.588C302.225 294.588 248.629 348.169 248.629 414.265C248.629 480.36 302.225 533.941 368.339 533.941C395.562 533.941 420.662 524.857 440.772 509.556L499.558 533.941L471.808 474.491Z" fill="#00ACCD"/>
<path d="M367.659 385.831C378.323 360.414 406.613 358.275 421.352 372.648C436.084 387.028 436.592 409.928 422.889 424.865L367.659 478.706L316.384 429.753C314.648 428.095 312.964 426.365 311.471 424.508H321.863C323.615 424.508 325.194 423.478 325.86 421.901L333.53 403.768L345.205 445.439C346.268 449.234 351.622 449.661 353.306 446.085L367.456 416.033L375.453 432.714C376.722 435.361 380.306 435.976 382.428 433.91L392.087 424.508H400.686C402.523 424.508 404.012 423.058 404.012 421.27C404.012 419.482 402.523 418.032 400.686 418.032H391.122C389.975 418.032 388.876 418.476 388.065 419.265L380.074 427.044L371.355 408.854C369.796 405.603 365.042 405.619 363.507 408.88L349.933 437.709L338.15 395.649C337.065 391.774 331.552 391.44 329.981 395.154L320.304 418.032H307.503C307.475 417.967 307.448 417.901 307.421 417.835C301.444 403.226 302.649 383.682 313.979 372.648C328.731 358.294 357.008 359.952 367.659 385.831Z" fill="white"/>
</g>
<defs>
<linearGradient id="paint0_linear" x1="762" y1="0" x2="762" y2="1246.46" gradientUnits="userSpaceOnUse">
<stop stop-color="#F2F9FB" stop-opacity="0"/>
<stop offset="1" stop-color="#F2F9FB"/>
</linearGradient>
<clipPath id="clip0">
<rect width="1524" height="1252" fill="white"/>
</clipPath>
</defs>
</svg>
