<?xml version="1.0" standalone="no"?>
<!DOCTYPE svg PUBLIC "-//W3C//DTD SVG 20010904//EN"
 "http://www.w3.org/TR/2001/REC-SVG-20010904/DTD/svg10.dtd">
<svg version="1.0" xmlns="http://www.w3.org/2000/svg"
 width="152.000000pt" height="152.000000pt" viewBox="0 0 152.000000 152.000000"
 preserveAspectRatio="xMidYMid meet">
<metadata>
Created by potrace 1.11, written by Peter Selinger 2001-2013
</metadata>
<g transform="translate(0.000000,152.000000) scale(0.100000,-0.100000)"
fill="#000000" stroke="none">
<path d="M290 1447 c-144 -42 -233 -137 -274 -293 -19 -73 -15 -227 8 -301
l17 -53 77 0 77 0 59 146 c43 107 65 149 81 156 34 15 63 -5 75 -55 6 -23 17
-62 24 -87 8 -25 35 -125 61 -223 l48 -177 79 171 c43 94 78 174 78 178 0 17
51 35 68 25 17 -11 55 -80 103 -187 l26 -58 58 56 58 55 75 -3 c59 -1 77 -6
86 -19 21 -34 -4 -53 -73 -56 -61 -3 -62 -4 -127 -67 -65 -65 -91 -77 -116
-52 -7 8 -33 57 -57 110 -25 53 -48 97 -51 97 -4 0 -42 -78 -85 -173 -42 -94
-84 -180 -93 -189 -18 -21 -55 -23 -70 -5 -9 11 -87 275 -107 362 -16 70 -41
155 -45 155 -3 0 -25 -49 -49 -108 -24 -59 -48 -113 -54 -119 -6 -9 -37 -13
-86 -13 l-76 -1 333 -330 334 -330 330 333 c182 183 344 352 360 376 121 176
95 429 -61 582 -96 94 -213 126 -349 95 -112 -26 -199 -100 -269 -229 -9 -16
-14 -12 -41 36 -71 123 -184 197 -314 204 -43 2 -92 -2 -118 -9z"/>
</g>
</svg>
